simulation
nRows=62
nColumns=15
endheader
time  TH_x TH_y TH_z SC_y  SC_z  SC_x  AC_y  AC_z  AC_x  GH_y  GH_z  GH_yy  EL_x  PS_y
0.027905  0.000000  0.000000  0.000000  -24.239358  5.754052  -4.638825  37.086980  13.118524  -2.878959  70.726524  10.211440  -68.861343  8.144459  0.000000
0.028274  0.000000  0.000000  0.000000  -24.307162  5.740474  -4.694551  37.099908  13.200858  -2.853074  70.925479  10.228917  -69.077067  8.202281  0.000000
0.028643  0.000000  0.000000  0.000000  -24.375654  5.726812  -4.749676  37.109231  13.283280  -2.827084  71.129097  10.246962  -69.292527  8.260103  0.000000
0.029012  0.000000  0.000000  0.000000  -24.444857  5.713060  -4.804060  37.114754  13.365783  -2.800865  71.337647  10.265373  -69.508016  8.318031  0.000000
0.029381  0.000000  0.000000  0.000000  -24.514774  5.699216  -4.857610  37.116775  13.448328  -2.774328  71.550590  10.283889  -69.723511  8.376193  0.000000
0.029806  0.000000  0.000000  0.000000  -24.596311  5.683123  -4.918304  37.115674  13.543552  -2.743245  71.800237  10.305015  -69.971834  8.443772  0.000000
0.030232  0.000000  0.000000  0.000000  -24.678720  5.666906  -4.977828  37.112335  13.638650  -2.711667  72.051803  10.325491  -70.219182  8.512035  0.000000
0.030658  0.000000  0.000000  0.000000  -24.761928  5.650569  -5.036253  37.108417  13.733525  -2.679667  72.302729  10.344987  -70.464835  8.581134  0.000000
0.031084  0.000000  0.000000  0.000000  -24.845855  5.634117  -5.093693  37.105465  13.828101  -2.647374  72.550737  10.363293  -70.708156  8.651164  0.000000
0.031510  0.000000  0.000000  0.000000  -24.930427  5.617559  -5.150281  37.104690  13.922337  -2.614952  72.794171  10.380335  -70.948714  8.722161  0.000000
0.031935  0.000000  0.000000  0.000000  -25.015582  5.600901  -5.206138  37.106836  14.016224  -2.582571  73.032184  10.396169  -71.186346  8.794107  0.000000
0.032361  0.000000  0.000000  0.000000  -25.101278  5.584153  -5.261360  37.112123  14.109786  -2.550385  73.264780  10.410953  -71.421176  8.866937  0.000000
0.032787  0.000000  0.000000  0.000000  -25.187492  5.567319  -5.316001  37.120282  14.203071  -2.518514  73.492712  10.424912  -71.653586  8.940567  0.000000
0.033213  0.000000  0.000000  0.000000  -25.274218  5.550402  -5.370067  37.130671  14.296137  -2.487030  73.717289  10.438293  -71.884141  9.014900  0.000000
0.033646  0.000000  0.000000  0.000000  -25.362907  5.533125  -5.424394  37.142629  14.390573  -2.455451  73.943760  10.451534  -72.117275  9.091092  0.000000
0.034078  0.000000  0.000000  0.000000  -25.452156  5.515766  -5.478015  37.155049  14.484899  -2.424283  74.170094  10.464594  -72.349889  9.167864  0.000000
0.034511  0.000000  0.000000  0.000000  -25.541988  5.498323  -5.530834  37.167089  14.579154  -2.393478  74.397739  10.477578  -72.582609  9.245187  0.000000
0.034944  0.000000  0.000000  0.000000  -25.632419  5.480795  -5.582753  37.178143  14.673354  -2.362974  74.627727  10.490508  -72.815921  9.323064  0.000000
0.035377  0.000000  0.000000  0.000000  -25.723460  5.463182  -5.633681  37.187897  14.767496  -2.332714  74.860601  10.503334  -73.050141  9.401531  0.000000
0.035809  0.000000  0.000000  0.000000  -25.815108  5.445484  -5.683550  37.196340  14.861561  -2.302654  75.096415  10.515949  -73.285415  9.480640  0.000000
0.036242  0.000000  0.000000  0.000000  -25.907353  5.427701  -5.732317  37.203722  14.955519  -2.272774  75.334825  10.528219  -73.521742  9.560453  0.000000
0.036710  0.000000  0.000000  0.000000  -26.007781  5.408373  -5.783811  37.211015  15.056992  -2.240667  75.594924  10.540945  -73.778447  9.647652  0.000000
0.037179  0.000000  0.000000  0.000000  -26.108843  5.388952  -5.834011  37.218229  15.158254  -2.208827  75.856413  10.552958  -74.036065  9.735811  0.000000
0.037647  0.000000  0.000000  0.000000  -26.210500  5.369446  -5.882948  37.225998  15.259268  -2.177328  76.118424  10.564162  -74.294392  9.824970  0.000000
0.038115  0.000000  0.000000  0.000000  -26.312713  5.349859  -5.930665  37.234812  15.360010  -2.146254  76.380316  10.574525  -74.553281  9.915146  0.000000
0.038583  0.000000  0.000000  0.000000  -26.415446  5.330197  -5.977200  37.244949  15.460463  -2.115691  76.641778  10.584075  -74.812673  10.006328  0.000000
0.039051  0.000000  0.000000  0.000000  -26.518673  5.310468  -6.022575  37.256455  15.560623  -2.085712  76.902844  10.592884  -75.072610  10.098492  0.000000
0.039519  0.000000  0.000000  0.000000  -26.622374  5.290675  -6.066796  37.269177  15.660489  -2.056369  77.163836  10.601056  -75.333224  10.191602  0.000000
0.040082  0.000000  0.000000  0.000000  -26.747641  5.266805  -6.118399  37.285656  15.780143  -2.021982  77.478197  10.610184  -75.647661  10.304730  0.000000
0.040645  0.000000  0.000000  0.000000  -26.873566  5.242856  -6.168249  37.302844  15.899368  -1.988572  77.794221  10.618698  -75.963730  10.419127  0.000000
0.041208  0.000000  0.000000  0.000000  -27.000141  5.218832  -6.216264  37.320178  16.018143  -1.956125  78.112807  10.626691  -76.281786  10.534775  0.000000
0.041770  0.000000  0.000000  0.000000  -27.127356  5.194740  -6.262361  37.337310  16.136437  -1.924620  78.434515  10.634181  -76.602082  10.651679  0.000000
0.042333  0.000000  0.000000  0.000000  -27.255191  5.170586  -6.306470  37.354162  16.254203  -1.894049  78.759496  10.641126  -76.924746  10.769869  0.000000
0.042896  0.000000  0.000000  0.000000  -27.383618  5.146376  -6.348544  37.370888  16.371386  -1.864427  79.087547  10.647450  -77.249786  10.889381  0.000000
0.043459  0.000000  0.000000  0.000000  -27.512603  5.122121  -6.388559  37.387788  16.487928  -1.835795  79.418252  10.653078  -77.577125  11.010253  0.000000
0.044075  0.000000  0.000000  0.000000  -27.654500  5.095507  -6.430024  37.406901  16.614800  -1.805638  79.783030  10.658380  -77.938230  11.144259  0.000000
0.044692  0.000000  0.000000  0.000000  -27.796965  5.068863  -6.469013  37.426983  16.740765  -1.776839  80.149912  10.662763  -78.301796  11.279938  0.000000
0.045308  0.000000  0.000000  0.000000  -27.939946  5.042205  -6.505524  37.448212  16.865758  -1.749492  80.518623  10.666264  -78.667706  11.417284  0.000000
0.045925  0.000000  0.000000  0.000000  -28.083401  5.015546  -6.539541  37.470566  16.989714  -1.723675  80.889156  10.668962  -79.035903  11.556275  0.000000
0.046541  0.000000  0.000000  0.000000  -28.227290  4.988900  -6.571030  37.493868  17.112568  -1.699446  81.261696  10.670948  -79.406375  11.696886  0.000000
0.047158  0.000000  0.000000  0.000000  -28.371579  4.962283  -6.599942  37.517883  17.234247  -1.676842  81.636495  10.672305  -79.779128  11.839099  0.000000
0.047774  0.000000  0.000000  0.000000  -28.516235  4.935707  -6.626218  37.542412  17.354674  -1.655892  82.013736  10.673087  -80.154153  11.982905  0.000000
0.048391  0.000000  0.000000  0.000000  -28.661224  4.909187  -6.649800  37.567347  17.473761  -1.636625  82.393461  10.673316  -80.531396  12.128306  0.000000
0.049007  0.000000  0.000000  0.000000  -28.806505  4.882740  -6.670638  37.592687  17.591418  -1.619078  82.775546  10.672994  -80.910752  12.275312  0.000000
0.049690  0.000000  0.000000  0.000000  -28.967723  4.853551  -6.690465  37.621330  17.719956  -1.601708  83.201218  10.671978  -81.333229  12.440035  0.000000
0.050271  0.000000  0.000000  0.000000  -29.105158  4.828807  -6.704615  37.646311  17.827796  -1.588690  83.565268  10.670558  -81.694549  12.581829  0.000000
0.050853  0.000000  0.000000  0.000000  -29.242735  4.804177  -6.716229  37.671940  17.934091  -1.577352  83.930570  10.668627  -82.057206  12.725073  0.000000
0.051434  0.000000  0.000000  0.000000  -29.380416  4.779677  -6.725275  37.698269  18.038748  -1.567739  84.296862  10.666190  -82.420984  12.869766  0.000000
0.052015  0.000000  0.000000  0.000000  -29.518174  4.755324  -6.731702  37.725282  18.141660  -1.559859  84.663914  10.663221  -82.785618  13.015908  0.000000
0.052597  0.000000  0.000000  0.000000  -29.656018  4.731134  -6.735367  37.752804  18.242658  -1.553569  85.031505  10.659524  -83.150647  13.163511  0.000000
0.053178  0.000000  0.000000  0.000000  -29.794026  4.707121  -6.735958  37.780434  18.341448  -1.548420  85.399330  10.654545  -83.515221  13.312619  0.000000
0.053618  0.000000  0.000000  0.000000  -29.898737  4.689062  -6.734082  37.801126  18.414542  -1.544842  85.677727  10.649362  -83.790272  13.426599  0.000000
0.054058  0.000000  0.000000  0.000000  -30.003676  4.671119  -6.729995  37.821528  18.485925  -1.541188  85.955455  10.642465  -84.063724  13.541544  0.000000
0.054499  0.000000  0.000000  0.000000  -30.108864  4.653300  -6.723580  37.841818  18.555413  -1.537257  86.231776  10.633486  -84.334981  13.657505  0.000000
0.054939  0.000000  0.000000  0.000000  -30.214292  4.635615  -6.714797  37.862392  18.622851  -1.532972  86.505747  10.622164  -84.603491  13.774525  0.000000
0.055379  0.000000  0.000000  0.000000  -30.319933  4.618075  -6.703660  37.883751  18.688109  -1.528345  86.776334  10.608327  -84.868717  13.892632  0.000000
0.055819  0.000000  0.000000  0.000000  -30.425747  4.600693  -6.690211  37.906372  18.751070  -1.523432  87.042536  10.591878  -85.130128  14.011837  0.000000
0.056380  0.000000  0.000000  0.000000  -30.560648  4.578813  -6.669830  37.937555  18.827748  -1.516894  87.373789  10.567138  -85.456640  14.165173  0.000000
0.056940  0.000000  0.000000  0.000000  -30.695669  4.557237  -6.645922  37.971766  18.900367  -1.510240  87.695282  10.538292  -85.775251  14.320211  0.000000
0.057501  0.000000  0.000000  0.000000  -30.830720  4.535992  -6.618605  38.008959  18.968783  -1.503687  88.006340  10.505654  -86.085216  14.476856  0.000000
0.058062  0.000000  0.000000  0.000000  -30.965720  4.515104  -6.587964  38.048687  19.032875  -1.497420  88.306858  10.469637  -86.385991  14.634996  0.000000
0.058622  0.000000  0.000000  0.000000  -31.100600  4.494595  -6.554049  38.090282  19.092543  -1.491592  88.597104  10.430673  -86.677217  14.794525  0.000000
